/* XPM */
static char * dune2_32x32_xpm[] = {
"32 32 23 1",
" 	c None",
".	c #010000",
"+	c #FFCAA5",
"@	c #B28D75",
"#	c #816555",
"$	c #382C24",
"%	c #EAEAF6",
"&	c #9D9DBA",
"*	c #E2B695",
"=	c #850000",
"-	c #B6000C",
";	c #440000",
">	c #695044",
",	c #50503C",
"'	c #1C1C14",
")	c #7D7D61",
"!	c #9D9D79",
"~	c #7D7D99",
"{	c #404059",
"]	c #28283C",
"^	c #141428",
"/	c #FFFFFF",
"(	c #5D5D79",
"     ...                        ",
"    .+@@.                       ",
"   .@#...                       ",
"   .#.@@.        .....          ",
"   .$..#.    .. .@++@#..        ",
"   .$...     .%.@##@++@#.       ",
"  .@#$.       .%.@##@++@#.      ",
" .+#$.        .&%.@$......      ",
" .@#$.        ..*@..=-=;.       ",
".@#$..    ....@.@>..;=...       ",
"..........+..+#...#...+@.       ",
".,'..,)!).+.+@#.,.$@.@##.       ",
".,'.',,),.@......,.#.##$.       ",
".''''',,..#.@#............   .. ",
" ...''''.#..@##....$...#.!. .~{.",
"    .....@.##...@#$.]^.#.,)..{{.",
"        .+.@.+@#.#$...#..'.&~.. ",
"        .@.@#...#$.]^.#...&~{.  ",
"        .@.#.@###$...#..&.~{.   ",
"     .. .#....##$.]^...&{....   ",
"    .+@..#.+@#.$....~..{.{{{.   ",
"   ..@@@..#...#.]^.~....{...    ",
"   .+.##...#.$....~.. ...#@@.   ",
"  .+@#...@#.........  .#...@.   ",
"  .@##$..#.+@#.+@./.  ....#.    ",
"   .$$.....@#.@#.@.@.  .{..     ",
"  .......@........#.@. .(.      ",
" .',''..+@#..',,'..$#@..(.      ",
".',),'..@#$.',!,,'..$$..{.      ",
",)!,,'..@$..,!),,'.... ..       ",
")!),''..#$.',)!,''.             ",
"!),''......,)!,,'..             "};
