/* XPM */
static char * dune2_16x16_xpm[] = {
"16 16 32 1",
" 	c None",
".	c #FFCAA5",
"+	c #E2B695",
"@	c #B28D75",
"#	c #816555",
"$	c #382C24",
"%	c #503C34",
"&	c #7D7D99",
"*	c #CAA185",
"=	c #997965",
"-	c #080814",
";	c #695044",
">	c #A50000",
",	c #650000",
"'	c #444434",
")	c #65654C",
"!	c #241C14",
"~	c #141428",
"{	c #717155",
"]	c #301C00",
"^	c #3C0000",
"/	c #5D5D79",
"(	c #010000",
"_	c #38382C",
":	c #1C1C14",
"<	c #404059",
"[	c #241400",
"}	c #8D8D6D",
"|	c #9D9D79",
"1	c #595944",
"2	c #50503C",
"3	c #28283C",
" .+             ",
"@#$% & *...     ",
"##+   &=*...    ",
"=%    %&*%%%    ",
"-% +..-;%>,,    ",
"'))'.-%-=,=*    ",
"-''*#-%--=.*    ",
"---*-%;!-!~-{   ",
"  ]=-=#;^!-') &/",
" ]%#-##%!(('_&/~",
"]@$--;%$(-$:<~~ ",
"#=*!!!!-![[-%~* ",
"#@%%!!%;!;[--$# ",
"_:!*=_{}_%* -!  ",
"|1:#$2{}2:  -3  ",
"1_:-:.+$::  -[  "};
