/* XPM */
static char * dune2_32x32a_xpm[] = {
"32 32 13 1",
" 	c None",
".	c #000000",
"+	c #FFFFFF",
"@	c #FFFF00",
"#	c #808000",
"$	c #808080",
"%	c #FF0000",
"&	c #800000",
"*	c #008000",
"=	c #000080",
"-	c #00FF00",
";	c #00FFFF",
">	c #C0C0C0",
"     ...                        ",
"    .+@@.                       ",
"   .@#...                       ",
"   .#.@@.        .....          ",
"   .$..#.    .. .@++@#..        ",
"   .$...     .+.@##@++@#.       ",
"  .@#$.       .+.@##@++@#.      ",
" .+#$.        .$+.@$......      ",
" .@#$.        ..$+..%+%&.       ",
".@#$..    ....@.+$..&%...       ",
"..........+..+#...#...+@.       ",
".*=..*-;-.+.+@#.$.$@.@##.       ",
".*=.=**-*.@......$.#.##$.       ",
".=====**..#.@#............   .. ",
" ...====.#..@##....$...#.;. .+$.",
"    .....@.##...@#$.>$.#.*-..$$.",
"        .+.@.+@#.#$...#..=.+>.. ",
"        .@.@#...#$.>$.$...+>$.  ",
"        .@.#.@###$...#..+.>$.   ",
"     .. .#....##$.>$...+$....   ",
"    .+@..#.+@#.$....$..$.$$$.   ",
"   ..@@@..#...#.>$.$....$...    ",
"   .+.##...#.$....$.. ...#@@.   ",
"  .+@#...@#.........  .#...@.   ",
"  .@##$..#.+@#.+@.+.  ....#.    ",
"   .$$.....@#.@#.@.@.  .>..     ",
"  .......@........#.@. .+.      ",
" .=*==..+@#..=**=..$#@..+.      ",
".=*-*=..@#$.=*;**=..$$..>.      ",
"*-;**=..@$..*;-**=.... ..       ",
"-;-*==..#$.=*-;*==.             ",
";-*==......*-;**=..             "};
